<svg width="189" height="189" viewBox="0 0 189 189" fill="none" xmlns="http://www.w3.org/2000/svg">
<g clip-path="url(#clip0)">
<rect width="189" height="189" fill="white"/>
<mask id="path-2-inside-1" fill="white">
<path fill-rule="evenodd" clip-rule="evenodd" d="M135.073 45.8193C130.095 56.5408 117.935 62.3687 106.195 59.0502C94.3245 55.6945 86.9829 44.1444 88.5681 32.2637C82.5367 32.9579 76.684 34.5278 71.1827 36.8769C74.8173 42.5679 76.0965 49.7272 74.1152 56.7363C70.4344 69.757 56.8952 77.3286 43.8744 73.6478C41.661 73.0221 39.6051 72.1115 37.7351 70.967C36.9016 73.0381 36.1706 75.1743 35.5495 77.3713C34.8736 79.7623 34.3464 82.1602 33.9625 84.555C36.4674 84.4588 39.0298 84.7485 41.5724 85.4673C54.5932 89.1481 62.1647 102.687 58.4839 115.708C56.4644 122.852 51.477 128.356 45.2358 131.261C48.6299 135.91 52.6741 140.107 57.2825 143.698C62.4704 133.46 74.3329 127.982 85.7936 131.222C97.1243 134.425 104.329 145.093 103.582 156.389C108.604 155.748 113.497 154.499 118.159 152.699C113.823 146.816 112.155 139.063 114.297 131.485C117.978 118.465 131.517 110.893 144.537 114.574C147.774 115.489 150.675 117.013 153.149 118.988C154.193 116.542 155.093 114.002 155.836 111.374C156.336 109.603 156.755 107.828 157.095 106.054C154.192 106.317 151.193 106.063 148.22 105.223C135.199 101.542 127.628 88.0031 131.309 74.9824C133.572 66.9754 139.563 61.029 146.87 58.4928C143.566 53.7749 139.605 49.499 135.073 45.8193ZM95.5511 112.228C104.94 112.228 112.551 104.617 112.551 95.2282C112.551 85.8393 104.94 78.2282 95.5511 78.2282C86.1623 78.2282 78.5511 85.8393 78.5511 95.2282C78.5511 104.617 86.1623 112.228 95.5511 112.228Z"/>
</mask>
<path fill-rule="evenodd" clip-rule="evenodd" d="M135.073 45.8193C130.095 56.5408 117.935 62.3687 106.195 59.0502C94.3245 55.6945 86.9829 44.1444 88.5681 32.2637C82.5367 32.9579 76.684 34.5278 71.1827 36.8769C74.8173 42.5679 76.0965 49.7272 74.1152 56.7363C70.4344 69.757 56.8952 77.3286 43.8744 73.6478C41.661 73.0221 39.6051 72.1115 37.7351 70.967C36.9016 73.0381 36.1706 75.1743 35.5495 77.3713C34.8736 79.7623 34.3464 82.1602 33.9625 84.555C36.4674 84.4588 39.0298 84.7485 41.5724 85.4673C54.5932 89.1481 62.1647 102.687 58.4839 115.708C56.4644 122.852 51.477 128.356 45.2358 131.261C48.6299 135.91 52.6741 140.107 57.2825 143.698C62.4704 133.46 74.3329 127.982 85.7936 131.222C97.1243 134.425 104.329 145.093 103.582 156.389C108.604 155.748 113.497 154.499 118.159 152.699C113.823 146.816 112.155 139.063 114.297 131.485C117.978 118.465 131.517 110.893 144.537 114.574C147.774 115.489 150.675 117.013 153.149 118.988C154.193 116.542 155.093 114.002 155.836 111.374C156.336 109.603 156.755 107.828 157.095 106.054C154.192 106.317 151.193 106.063 148.22 105.223C135.199 101.542 127.628 88.0031 131.309 74.9824C133.572 66.9754 139.563 61.029 146.87 58.4928C143.566 53.7749 139.605 49.499 135.073 45.8193ZM95.5511 112.228C104.94 112.228 112.551 104.617 112.551 95.2282C112.551 85.8393 104.94 78.2282 95.5511 78.2282C86.1623 78.2282 78.5511 85.8393 78.5511 95.2282C78.5511 104.617 86.1623 112.228 95.5511 112.228Z" fill="#FBD168"/>
<path d="M135.073 45.8193L136.964 43.4902L133.974 41.0626L132.352 44.556L135.073 45.8193ZM88.5681 32.2637L91.5418 32.6605L92.0512 28.843L88.2251 29.2834L88.5681 32.2637ZM71.1827 36.8769L70.0046 34.1179L66.7489 35.5082L68.6544 38.4917L71.1827 36.8769ZM37.7351 70.967L39.3011 68.4082L36.2761 66.5567L34.952 69.847L37.7351 70.967ZM33.9625 84.555L31.0003 84.0801L30.421 87.6932L34.0776 87.5528L33.9625 84.555ZM45.2358 131.261L43.97 128.541L40.6604 130.081L42.8128 133.029L45.2358 131.261ZM57.2825 143.698L55.4385 146.064L58.3119 148.304L59.9586 145.054L57.2825 143.698ZM103.582 156.389L100.589 156.191L100.349 159.826L103.962 159.365L103.582 156.389ZM118.159 152.699L119.24 155.498L122.905 154.083L120.574 150.919L118.159 152.699ZM153.149 118.988L151.278 121.333L154.36 123.792L155.908 120.165L153.149 118.988ZM157.095 106.054L160.042 106.618L160.79 102.706L156.824 103.066L157.095 106.054ZM146.87 58.4928L147.854 61.3269L151.605 60.0247L149.327 56.772L146.87 58.4928ZM112.551 95.2282L115.551 95.2282L112.551 95.2282ZM105.379 61.9371C118.559 65.6627 132.206 59.1191 137.794 47.0825L132.352 44.556C127.985 53.9625 117.311 59.0747 107.012 56.1633L105.379 61.9371ZM85.5945 31.8669C83.8147 45.2052 92.0523 58.1697 105.379 61.9371L107.012 56.1633C96.5967 53.2192 90.151 43.0836 91.5418 32.6605L85.5945 31.8669ZM72.3609 39.6359C77.5995 37.3989 83.1711 35.9047 88.9111 35.244L88.2251 29.2834C81.9022 30.0111 75.7685 31.6566 70.0046 34.1179L72.3609 39.6359ZM77.002 57.5524C79.2261 49.6847 77.7872 41.6444 73.7111 35.2621L68.6544 38.4917C71.8474 43.4913 72.9669 49.7697 71.2283 55.9202L77.002 57.5524ZM43.0584 76.5347C57.6735 80.6661 72.8706 72.1675 77.002 57.5524L71.2283 55.9202C67.9982 67.3466 56.1169 73.991 44.6905 70.7609L43.0584 76.5347ZM36.169 73.5258C38.2706 74.812 40.5786 75.8337 43.0584 76.5347L44.6905 70.7609C42.7435 70.2105 40.9396 69.411 39.3011 68.4082L36.169 73.5258ZM38.4364 78.1873C39.0282 76.0936 39.7246 74.0589 40.5182 72.087L34.952 69.847C34.0786 72.0173 33.3129 74.2549 32.6626 76.5552L38.4364 78.1873ZM36.9246 85.0299C37.2902 82.7499 37.7922 80.466 38.4364 78.1873L32.6626 76.5552C31.9549 79.0586 31.4027 81.5704 31.0003 84.0801L36.9246 85.0299ZM42.3885 82.5804C39.5395 81.7751 36.6627 81.4491 33.8474 81.5572L34.0776 87.5528C36.272 87.4686 38.5201 87.722 40.7564 88.3542L42.3885 82.5804ZM61.3708 116.524C65.5023 101.909 57.0036 86.7119 42.3885 82.5804L40.7564 88.3542C52.1827 91.5842 58.8271 103.466 55.597 114.892L61.3708 116.524ZM46.5017 133.98C53.5008 130.723 59.1038 124.544 61.3708 116.524L55.597 114.892C53.825 121.161 49.4533 125.989 43.97 128.541L46.5017 133.98ZM59.1266 141.332C54.7409 137.914 50.8908 133.919 47.6589 129.492L42.8128 133.029C46.369 137.901 50.6074 142.3 55.4385 146.064L59.1266 141.332ZM86.6097 128.335C73.7423 124.698 60.4303 130.849 54.6065 142.342L59.9586 145.054C64.5105 136.071 74.9234 131.267 84.9775 134.109L86.6097 128.335ZM106.576 156.587C107.413 143.907 99.3313 131.931 86.6097 128.335L84.9775 134.109C94.9173 136.919 101.244 146.28 100.589 156.191L106.576 156.587ZM117.079 149.901C112.639 151.614 107.982 152.803 103.202 153.413L103.962 159.365C109.227 158.693 114.354 157.384 119.24 155.498L117.079 149.901ZM111.41 130.669C109.005 139.176 110.882 147.882 115.744 154.479L120.574 150.919C116.765 145.75 115.304 138.949 117.184 132.302L111.41 130.669ZM145.354 111.687C130.738 107.556 115.541 116.054 111.41 130.669L117.184 132.302C120.414 120.875 132.295 114.231 143.721 117.461L145.354 111.687ZM155.02 116.643C152.239 114.424 148.982 112.713 145.354 111.687L143.721 117.461C146.567 118.265 149.11 119.603 151.278 121.333L155.02 116.643ZM152.949 110.558C152.241 113.062 151.384 115.481 150.39 117.81L155.908 120.165C157.002 117.602 157.945 114.941 158.723 112.19L152.949 110.558ZM154.149 105.49C153.825 107.18 153.426 108.87 152.949 110.558L158.723 112.19C159.247 110.336 159.686 108.477 160.042 106.618L154.149 105.49ZM147.404 108.11C150.735 109.052 154.103 109.338 157.366 109.041L156.824 103.066C154.281 103.297 151.65 103.075 149.036 102.336L147.404 108.11ZM128.422 74.1663C124.29 88.7814 132.789 103.979 147.404 108.11L149.036 102.336C137.61 99.1062 130.965 87.2248 134.195 75.7985L128.422 74.1663ZM145.886 55.6587C137.693 58.5025 130.963 65.1764 128.422 74.1663L134.195 75.7985C136.181 68.7743 141.433 63.5555 147.854 61.3269L145.886 55.6587ZM133.182 48.1483C137.496 51.6504 141.267 55.7208 144.412 60.2135L149.327 56.772C145.866 51.8289 141.715 47.3477 136.964 43.4902L133.182 48.1483ZM109.551 95.2282C109.551 102.96 103.283 109.228 95.5511 109.228L95.5511 115.228C106.597 115.228 115.551 106.274 115.551 95.2282L109.551 95.2282ZM95.5511 81.2282C103.283 81.2282 109.551 87.4962 109.551 95.2282L115.551 95.2282C115.551 84.1825 106.597 75.2282 95.5511 75.2282L95.5511 81.2282ZM81.5511 95.2282C81.5511 87.4962 87.8191 81.2282 95.5511 81.2282L95.5511 75.2282C84.5054 75.2282 75.5511 84.1825 75.5511 95.2282L81.5511 95.2282ZM95.5511 109.228C87.8191 109.228 81.5511 102.96 81.5511 95.2282L75.5511 95.2282C75.5511 106.274 84.5054 115.228 95.5511 115.228L95.5511 109.228Z" fill="black" fill-opacity="0.03" mask="url(#path-2-inside-1)"/>
<circle cx="50.5391" cy="50.0717" r="24.5" transform="rotate(15.7848 50.5391 50.0717)" fill="white"/>
<circle cx="50.5391" cy="50.0717" r="15.5" transform="rotate(15.7848 50.5391 50.0717)" fill="#5D9CEC"/>
<circle cx="50.5391" cy="50.0717" r="14.5" transform="rotate(15.7848 50.5391 50.0717)" stroke="black" stroke-opacity="0.05" stroke-width="2"/>
<circle cx="34.9078" cy="109.043" r="24.5" transform="rotate(15.7848 34.9078 109.043)" fill="white"/>
<circle cx="34.9078" cy="109.044" r="15.5" transform="rotate(15.7848 34.9078 109.044)" fill="#D36974"/>
<circle cx="34.9078" cy="109.044" r="14.5" transform="rotate(15.7848 34.9078 109.044)" stroke="black" stroke-opacity="0.05" stroke-width="2"/>
<circle cx="79.129" cy="154.798" r="24.5" transform="rotate(15.7848 79.129 154.798)" fill="white"/>
<circle cx="79.129" cy="154.798" r="15.5" transform="rotate(15.7848 79.129 154.798)" fill="#5D9CEC"/>
<circle cx="79.129" cy="154.798" r="14.5" transform="rotate(15.7848 79.129 154.798)" stroke="black" stroke-opacity="0.05" stroke-width="2"/>
<circle cx="137.873" cy="138.15" r="24.5" transform="rotate(15.7848 137.873 138.15)" fill="white"/>
<circle cx="137.873" cy="138.15" r="15.5" transform="rotate(15.7848 137.873 138.15)" fill="#D36974"/>
<circle cx="137.873" cy="138.15" r="14.5" transform="rotate(15.7848 137.873 138.15)" stroke="black" stroke-opacity="0.05" stroke-width="2"/>
<circle cx="112.86" cy="35.4741" r="25" transform="rotate(15.7848 112.86 35.4741)" fill="white" stroke="white"/>
<circle cx="112.86" cy="35.4742" r="15.5" transform="rotate(15.7848 112.86 35.4742)" fill="#D36974"/>
<circle cx="112.86" cy="35.4742" r="14.5" transform="rotate(15.7848 112.86 35.4742)" stroke="black" stroke-opacity="0.05" stroke-width="2"/>
<circle cx="154.885" cy="81.6471" r="24.5" transform="rotate(15.7848 154.885 81.6471)" fill="white"/>
<circle cx="154.885" cy="81.6471" r="15.5" transform="rotate(15.7848 154.885 81.6471)" fill="#5D9CEC"/>
<circle cx="154.885" cy="81.6471" r="14.5" transform="rotate(15.7848 154.885 81.6471)" stroke="black" stroke-opacity="0.05" stroke-width="2"/>
</g>
<defs>
<clipPath id="clip0">
<rect width="189" height="189" fill="white"/>
</clipPath>
</defs>
</svg>
